<?xml version="1.0" standalone="no"?>
<!DOCTYPE svg PUBLIC "-//W3C//DTD SVG 20010904//EN"
 "http://www.w3.org/TR/2001/REC-SVG-20010904/DTD/svg10.dtd">
<svg version="1.0" xmlns="http://www.w3.org/2000/svg"
 width="446.000000pt" height="446.000000pt" viewBox="0 0 446.000000 446.000000"
 preserveAspectRatio="xMidYMid meet">
<metadata>
Created by potrace 1.11, written by Peter Selinger 2001-2013
</metadata>
<g transform="translate(0.000000,446.000000) scale(0.100000,-0.100000)"
fill="#000000" stroke="none">
<path d="M2119 4220 c-100 -17 -231 -90 -300 -168 -93 -106 -139 -225 -140
-362 -1 -165 45 -276 160 -390 113 -113 228 -160 386 -160 293 1 529 227 539
517 11 309 -216 558 -519 567 -44 2 -101 0 -126 -4z"/>
<path d="M4304 4114 c-10 -44 -70 -148 -122 -212 -168 -207 -440 -397 -1107
-772 -161 -90 -254 -152 -370 -245 -150 -119 -305 -288 -399 -432 l-28 -42
-50 67 c-86 114 -158 191 -267 284 -183 158 -337 250 -696 413 -386 176 -689
340 -862 467 -145 107 -268 243 -309 342 -11 25 -22 46 -25 46 -8 0 -36 -212
-50 -375 -13 -162 -10 -589 7 -755 44 -442 139 -797 304 -1135 124 -255 258
-444 450 -635 284 -284 632 -484 1055 -609 l130 -39 13 25 c20 38 17 180 -8
305 -79 406 -302 869 -531 1101 -94 94 -91 98 31 37 189 -96 360 -252 498
-456 41 -59 42 -64 42 -142 0 -308 108 -781 246 -1077 26 -56 28 -58 31 -30 6
53 44 299 50 325 5 21 9 16 19 -30 7 -30 23 -115 35 -188 13 -78 25 -128 30
-120 15 27 77 245 103 361 51 224 74 439 75 677 l1 126 53 92 c119 208 258
372 402 474 63 45 145 93 145 85 0 -1 -25 -29 -56 -62 -196 -210 -378 -631
-452 -1048 -34 -186 -26 -398 14 -414 23 -8 315 96 451 162 252 121 440 251
614 424 180 180 299 348 412 581 142 291 222 590 261 971 19 176 14 663 -8
845 -31 258 -95 606 -116 628 -5 5 -12 -4 -16 -20z"/>
</g>
</svg>
